<svg xmlns="http://www.w3.org/2000/svg" xml:space="preserve" fill-rule="evenodd" stroke-linejoin="round" stroke-miterlimit="2" clip-rule="evenodd" viewBox="0 0 584 834">
  <path fill="#2E2B70" fill-rule="nonzero" d="M230 494v.1l-17.4 12.4v.1a5.4 5.4 0 0 1-8.4-6.2c.4-1 1-1.9 2-2.5a672 672 0 0 1 17.7-12.7 5.4 5.4 0 1 1 6.2 8.9Zm36-24.2L248 482a5.4 5.4 0 0 1-7.6-1.5 5.4 5.4 0 0 1 1.5-7.5l18-12a5.4 5.4 0 0 1 7.6 1.5c1.6 2.4 1 5.8-1.5 7.4Zm-70.6 49.8a308.4 308.4 0 0 0-16.6 13.7 5.4 5.4 0 0 1-7-8.2 438.4 438.4 0 0 1 16.9-14 5.4 5.4 0 1 1 6.7 8.5ZM302 445.3a1218 1218 0 0 1-18 12.4 5.4 5.4 0 0 1-8.1-6.3 5.4 5.4 0 0 1 2.4-2.9l.2-.1.1-.1.8-.5 8.4-5.8 7.9-5.5a5.4 5.4 0 0 1 6.3 8.8ZM134.9 579.6a231 231 0 0 0-12 17.5 5.4 5.4 0 1 1-9.2-5.7 240.6 240.6 0 0 1 12.6-18.3 5.4 5.4 0 0 1 8.6 6.5Zm-22.2 35.9-.4.9a179 179 0 0 0-7 16.8l-.7 1.9a5.5 5.5 0 0 1-7 3.3 5.4 5.4 0 0 1-3.2-7l.7-1.9c2.1-6 4.6-12 7.4-17.8l.4-.7a5.4 5.4 0 0 1 6.7-2.8l.4.1a5.4 5.4 0 0 1 2.7 7.2Zm50.4-67.7c-5.1 5-10 10.2-14.6 15.3l-.1.1a5.4 5.4 0 1 1-8-7.2c4.7-5.3 9.8-10.7 15.2-16a5.4 5.4 0 1 1 7.5 7.8ZM467 303.1a1046 1046 0 0 1-15.3 15.6 5.4 5.4 0 0 1-7.6-7.6c5.1-5.1 10.2-10.3 15-15.4a5.4 5.4 0 0 1 7.9 7.4ZM436.2 334a715 715 0 0 1-15.8 15 5.4 5.4 0 0 1-7.4-7.8 1131 1131 0 0 0 15.7-14.9 5.4 5.4 0 1 1 7.5 7.8ZM331.6 8.3a5.4 5.4 0 0 1 6.1-.3C421 59.6 507 113 581.5 179.4a5.4 5.4 0 0 1-1.7 9.1 565.7 565.7 0 0 0-65.4 26.7 723.6 723.6 0 0 1-20.4 75 5.4 5.4 0 0 1-9.9.8l-27-51.2a422.4 422.4 0 0 0-44 26.9 5.4 5.4 0 0 1-8.2-3L329.7 14.2c-.7-2.1.1-4.5 1.9-5.8ZM511 204.8a531.1 531.1 0 0 1 56.4-23.3c-60.8-53.2-129.2-98-197.2-140.5 50 51.7 97.3 106.7 140.8 163.8Zm-21 61.4c5.3-17.5 10-35.3 13.8-53.1A1813.1 1813.1 0 0 0 383.9 71a1863 1863 0 0 1 96 149.5c.7 1 .8 2.2.6 3.4l4.2 18c1.9 7.9 3.8 16 5.5 24.3Zm-14-13.3c-.6-2.9-1.2-5.7-2-8.5l-2.6-11.7-4.8 2.2 9.5 18Zm-63 .7a398.1 398.1 0 0 1 55.3-31.4c-36-62.2-76-122.8-119-180.4L413 253.6Zm-75.9 165.9a1196 1196 0 0 1-17.4 13 5.4 5.4 0 0 1-8.3-6.1c.3-1 1-1.9 1.9-2.5l17.3-13a5.4 5.4 0 0 1 6.5 8.6Zm34.2-27.2-17 13.7a5.4 5.4 0 0 1-8.4-6c.3-1 .9-1.8 1.7-2.4 5.5-4.4 11.2-9 16.8-13.7a5.4 5.4 0 0 1 6.9 8.4Zm33-28.5c-5.5 4.9-11 9.8-16.4 14.4a5.4 5.4 0 1 1-7-8.2l16.2-14.2a5.4 5.4 0 0 1 7.2 8Zm-213 346.9a76 76 0 0 1 23 4c2.8 1 4.3 4 3.3 6.7v.2c-1 2.7-4 4.2-6.8 3.3-6.1-2-12.8-3.2-19.8-3.4a5.4 5.4 0 1 1 .3-10.8Zm-47.7 74.2a5.4 5.4 0 0 1-6.2 8.8 119 119 0 0 1-17.3-14.6 5.4 5.4 0 0 1 .1-7.7c2.1-2 5.5-2 7.6.1 4.9 5 10.2 9.4 15.7 13.3Zm52.9 22.5c0-.9 0-1.7.3-2.4a5.3 5.3 0 0 1 4.6-3.5c6.8-.7 13.4-2.4 19.2-5a5.4 5.4 0 1 1 4.5 9.8h-.1a72.5 72.5 0 0 1-22.5 5.9c-.9.1-1.7 0-2.4-.3a5.4 5.4 0 0 1-3.6-4.5ZM25 810l-.1.1c-5.4 4.8-10.7 9.6-15.7 14.5a5.4 5.4 0 1 1-7.5-7.7c5.1-5 10.5-10 16-15a5.4 5.4 0 1 1 7.2 8.2Zm210-23.4c.1-.5.4-1 .8-1.5a31.6 31.6 0 0 0 6.8-16.9 5.4 5.4 0 1 1 10.8.9 41 41 0 0 1-9.2 22.7 5.4 5.4 0 0 1-9.3-5.2Zm4.3-37c-2.7-6-6.6-11.2-11.4-15.3a5.4 5.4 0 1 1 7-8.2c6 5 11 11.7 14.3 19.2a5.4 5.4 0 0 1-10 4.3ZM58.3 783c-5.8 4.4-11.5 8.8-17 13.2a5.4 5.4 0 0 1-6.8-8.4A519 519 0 0 1 52 774.4a5.4 5.4 0 0 1 6.4 8.7Zm96.2 14.7c1.2-2.8 4.3-4 7-3l4.8 2c4.9 1.7 9.9 3 14.8 3.9a5.4 5.4 0 1 1-1.8 10.6 103.7 103.7 0 0 1-22-6.5 5.4 5.4 0 0 1-2.8-7ZM95.7 697c.4 7 1.4 14 3 20.6A5.4 5.4 0 1 1 88 720a143 143 0 0 1-3.2-22.4 5.4 5.4 0 0 1 5-5.7 5.4 5.4 0 0 1 5.7 5Zm79.2 20c.6 3-1.2 5.9-4.2 6.5-6.3 1.3-12.8 3.3-19.9 6a5.4 5.4 0 0 1-7-6.8 5.4 5.4 0 0 1 3.1-3.2c7.6-3 14.7-5.1 21.6-6.6 1-.2 2-.1 3 .2 1.6.6 3 2 3.4 4ZM106 739.7a513.3 513.3 0 0 1 17.6-9.6l3-1.5a5.4 5.4 0 0 1 7.3 2.4c1.3 2.7.2 6-2.5 7.3l-3 1.5c-5.3 2.7-10.6 5.5-15.8 8.4h-.2c-.5.4-1.1.6-1.7.7a113 113 0 0 0 4 6.6 5.4 5.4 0 0 1-9 6c-4.2-6.4-7.8-13-10.7-20a5.4 5.4 0 0 1 2.9-7 5.4 5.4 0 0 1 7 2.8l1 2.4ZM94 759a513 513 0 0 0-18.1 11.7 5.4 5.4 0 1 1-6-9c6-4 12.1-8 18.4-11.9a5.4 5.4 0 1 1 5.6 9.3Zm4.9-103.7a160 160 0 0 0-3 20.8 5.4 5.4 0 0 1-7.3 4.6c-2.2-.8-3.7-3-3.5-5.5a169.3 169.3 0 0 1 3.4-22.9 5.4 5.4 0 0 1 10.4 3Z"/>
</svg>
