<svg xmlns="http://www.w3.org/2000/svg" xml:space="preserve" fill-rule="evenodd" stroke-linejoin="round" stroke-miterlimit="2"  viewBox="0 0 4167 4167">
  <path d="M3185.2 3160.5c0-117-96.4-213.4-213.5-213.4-117 0-213.4 96.3-213.4 213.4a214.5 214.5 0 0 0 213.4 213.5 214.5 214.5 0 0 0 213.5-213.5Z"/>
  <path d="M2346.6 2569.6c-50.5 99.8 0 227.3-39.3 310.4-56 99.8-224 99.8-319.2 50-268.8-138.7-117.6-460.2 44.8-460.2 106.4 0 173.6-5.6 224-38.8 67.2-38.8 100.9-116.4 78.4-227.3-39.2-238.4-207.2-210.7-375.2-221.8-173.6-16.6-100.8-194-123.2-354.8-28-160.8-235.2-133-341.6-133-112 0-151.2-83.2-140-238.4 11.2-160.8-22.4-277.2-240.8-266.1-229.6 11-252-72-246.4-293.8C879.3 396.4 509.6 551.6 425.6 485c-78.4-66.5-56-116.4-56-277.2C369.6 47.1 0 108.1 0 108.1v393.6a271 271 0 0 1 135-36c147.5 0 268.9 120.1 268.9 266 0 146-121.4 266.2-268.8 266.2A271 271 0 0 1 0 961.9v543.3a231.5 231.5 0 0 1 109.9-27.8c126 0 229.6 102.6 229.6 227.3 0 124.7-103.6 227.3-229.6 227.3-38.4 0-76.2-9.5-109.9-27.7v693c32.9-42 83.6-66.5 137.2-66.5 95.2 0 173.6 77.5 173.6 171.8 0 94.3-78.4 171.9-173.6 171.9A174.4 174.4 0 0 1 0 2808v1358.2h520.8a120.4 120.4 0 0 1 240.8 0h649.7c0-111 92.3-202.4 204.4-202.4 112.1 0 204.4 91.4 204.4 202.4h515.2s-16.8-133 78.5-199.6c134.4-99.8 397.6 50 397.6-288.3 0-238.3-196-221.7-302.4-232.8-95.2-16.6-162.4-94.2-179.3-155.2-28-94.3-28-277.2 39.3-310.5 140-72 218.4 16.6 352.8-83.1 106.4-72.1 123.2-299.4-28-382.6-151.2-77.6-285.6-66.5-347.2 55.5ZM616 1477.4c-4 .2-8.1.3-12.2.3-138.2 0-252-112.6-252-249.4 0-136.9 113.8-249.5 252-249.5a250.8 250.8 0 0 1 252 249.5c0 132.3-106.3 242.7-239.8 249.1Zm487.3 493.4c-129.4-10-230.4-118.2-230.4-246.7 0-135.7 112.8-247.4 250-247.4 6.5 0 13 .2 19.6.7 129.3 10.1 230.4 118.3 230.4 246.7 0 135.8-112.9 247.5-250 247.5-6.6 0-13.1-.3-19.6-.8ZM616 2403.3c-5.2.4-10.5.6-15.8.6-107.5 0-196-87.6-196-194 0-106.5 88.5-194 196-194a195 195 0 0 1 196 194c0 100.5-79 185.2-180.2 193.4Zm969 88.7-10 .1c-153.6 0-280-125-280-277.2 0-152 126.4-277.1 280-277.1a278.7 278.7 0 0 1 280 277.2c0 148.3-120.3 271.7-270 277Zm-672 210.6c0-114 94.8-207.9 210-207.9s210 93.9 210 208c0 114-94.8 207.8-210 207.8s-210-93.8-210-207.9Zm-420 499a148.4 148.4 0 0 1 296.8 0c0 80.6-67 146.9-148.5 146.9a148.4 148.4 0 0 1-148.4-147Zm470.4 476.7a170.2 170.2 0 0 1-2.8-30.7c0-94.3 78.3-171.9 173.6-171.9 95.2 0 173.6 77.6 173.6 171.9 0 10.3-1 20.6-2.8 30.7a173.7 173.7 0 0 1-170.8 141.2 173.7 173.7 0 0 1-170.8-141.2Zm1400 0c0 135.4-112.4 246.7-249.2 246.7-136.7 0-249.2-111.3-249.2-246.7 0-135.3 112.5-246.7 249.2-246.7 136.8 0 249.3 111.4 249.3 246.7Zm-537.6-487.8c1.9 11.2 2.8 22.6 2.8 34 0 115.6-96 210.7-212.8 210.7-116.7 0-212.8-95-212.8-210.7 0-11.4 1-22.8 2.8-34a212.9 212.9 0 0 1 210-176.6 212.9 212.9 0 0 1 210 176.6ZM1338.5 257.8C1338.5 116.4 1220.9 0 1078 0 935.2 0 817.7 116.4 817.7 257.8S935.2 515.6 1078 515.6s260.4-116.4 260.4-257.8Zm492.8 515.6c0-141.4-117.5-257.8-260.4-257.8-142.9 0-260.4 116.4-260.4 257.8s117.5 257.8 260.4 257.8c142.9 0 260.4-116.4 260.4-257.8Zm397.6 310.4a243 243 0 0 0-170.8-70c-132.5 0-241.5 108-241.5 239.1a238 238 0 0 0 70.7 169.1 242.9 242.9 0 0 0 170.8 70c132.6 0 241.6-108 241.6-239a238 238 0 0 0-70.8-169.2Zm560 665.3c0-132.3-109.9-241.2-243.5-241.2-133.7 0-243.7 108.9-243.7 241.2 0 132.3 110 241.1 243.7 241.1 133.6 0 243.6-108.8 243.6-241.1Zm397.7 332.6a219.5 219.5 0 0 0-165.5-75.2c-119.9 0-218.5 97.6-218.5 216.2 0 63 27.8 122.9 76 164A219.8 219.8 0 0 0 3021 2439c119.8 0 218.4-97.7 218.4-216.3a215 215 0 0 0-52.9-141Zm532 643.1c0-106.4-88.4-194-196-194-107.5 0-196 87.6-196 194s88.5 194 196 194c107.6 0 196-87.6 196-194Zm11.2 964.6c1.9-11 2.8-22.3 2.8-33.6 0-112.5-93.5-205.1-207.2-205.1-113.6 0-207.2 92.6-207.2 205.1 0 11.3 1 22.5 2.8 33.6a207.3 207.3 0 0 0 204.4 171.5c101 0 188-73 204.4-171.5Zm436.9 476.8a162.5 162.5 0 0 0-324.9 0 162.5 162.5 0 0 0 324.9 0Zm-50.4-1075.5a163.3 163.3 0 0 0-117.6-49.9 162.4 162.4 0 0 0-162.5 160.8c0 44 18.3 86 50.5 116.4a163.3 163.3 0 0 0 112 44.3c89 0 162.4-72.5 162.4-160.7 0-41.3-16-81-44.8-111Zm-453.7-1358.2c1.9-9.1 2.8-18.4 2.8-27.6a140 140 0 0 0-140-138.6 140 140 0 0 0-140 138.6 140 140 0 0 0 140 138.6 140 140 0 0 0 137.2-111Zm-436.8-476.8c0-100.4-83.4-183-184.8-183s-184.8 82.6-184.8 183c0 100.3 83.4 183 184.8 183s184.8-82.7 184.8-183ZM2621 596a186.4 186.4 0 0 0-78.2-17.2c-101.4 0-184.8 82.6-184.8 183 0 77.2 49.4 146.5 123 172.3 19.8 7 40.7 10.6 61.8 10.6 101.4 0 184.8-82.6 184.8-183A183 183 0 0 0 2621 596Zm-358.5-332.7c2-10.8 2.8-21.7 2.8-32.6 0-106.5-88.4-194-196-194-107.5 0-196 87.5-196 194 0 11 1 21.8 2.8 32.6a196 196 0 0 0 193.2 161.4 196 196 0 0 0 193.2-161.4Zm1013.7 3902.9c0-127.7-106.2-232.8-235.2-232.8s-235.2 105-235.2 232.8c0 127.7 106.2 232.8 235.2 232.8s235.2-105 235.2-232.8Z"/>
</svg>
