<svg xmlns="http://www.w3.org/2000/svg" xml:space="preserve" fill-rule="evenodd"  viewBox="0 0 792 1250">
  <g fill-rule="nonzero" stroke="#000">
    <path stroke-width="5.6" d="M189 1229c52 23 103 20 151-9 60-13 8-92 26-137 2-31 10-61 15-92 36 33 50 82 48 129-4 49-45 87-57 128 50 11 95-32 127-67 41-16 66-56 21-86-43-69-51-151-81-225-38-48 53-52 56-96 21-39 58-63 92-88 26-44 24-96 36-144 10-42-17-119 16-141 48 23 53 82 68 127 25 58 3 112-10 168 1 53 55-54 32 5-41 54 70-10 62-44-12-41-21-85-21-129 2-53-12-101-46-143-29-48-88-66-120-113-35-45-72-89-120-120-1-41-14-83-36-118-33-47-97-40-127-10-39 38-9 111 14 162 4 10 31 15 33 23 5 19-12 37-35 54-47 34-104 42-159 64-46 26-98 14-142 21-45 5-42 87 4 48 51-6 104 6 155-12 60-26 132-12 181-52 36 30 33 103 15 147-20 83 6 181-56 249-33 41-81 83-73 140 29 49 30 107 38 163 7 53-6 106-49 143-26 11-52 25-58 55Z"/>
    <path stroke-width="24.8" d="M199 1096a66 66 0 1 1-133 0 66 66 0 0 1 133 0Z"/>
  </g>
</svg>
