<svg xmlns="http://www.w3.org/2000/svg" xml:space="preserve" fill-rule="evenodd"  viewBox="0 0 1250 1500">
  <g stroke="#000" stroke-width="4.2">
    <path d="M403 298v-24l-12-15-15-21-5-9-23 15-19 2-7-6-4-11 2-8-6-3v-10l-9-11 2-6 1-3-5-2h-6l-4-2v-12l4-8 6-9 4-24-1-30 5-11 8-9 1-22 2-2 7-4 16-27 16-17 23-9 17 2 26 13 25 16-25-3-30-5-10 9 46 1 17 11 15-1 19-11 24 13 5 29v8l22 23 12 29 18 27 22 27 15 23 1 21-4 12v-20l-12-21-16-17-20-23 6 25-1 44-7 24 23-3-169 45Z"/>
    <path d="m571 250 20 3 13 8 23 12 20 15 4 2 27 6 15 4 16 10 22 9 24 12 23 7 19 9 13 13 7 5 3 14-1 9s-12 10-18 23l-5 13-12 7-35 36-25 24-28 22-32 27-4-1-13 15-12 12-18 7h-14s-11 2-16-2c-2-2-2-10-2-10s-12 2-15-2c-3-2 0-10 0-10l-4-4 1-13-10-7 32-23-10-2-15 7-4 2 1-12 11-14 15-2 29 14 18 3 30-29 29-28 16-34 8-16-1-8-7-1-46-4-43-13-20-6h-5l-9 20-8 35 2 11-5 10-5 36-6 18-5 55 3 29 15 35a1397 1397 0 0 0 54 99c3 10 7 19 7 30 1 13-7 39-7 39l-229-1 26-44-6-13-5-19-13-25-15-12 7-51-13-30-13-35 2-40-35-35-21 24-20 17-16 20-10 9-18 7-15 1-11-10-23-35-15-27-24-60-9-26-8-24-3-11-13-16-5-18-6-12 2-22h6l5 4v-11l4-5 8-3 4-9 5-5h5l5 4 6-8h5l4 1 2 17 6-7 2-12h7l3 11v8l8 5v18l1 17-4 15-7 20-2 12 15 40 22 37 17 22 9 7 18-29 17-29 26-24 13-10 10-33 19-23 16-12 22-14 172-42Z"/>
    <path d="m630 773-1 16 4 21 13 19 25 25 15 24 6 20 11 31 5 19 28 37 17 10 28-11 30-15s11-7 18-9c10-3 32-3 32-3h26l45 4h50l56 7 19-23 33-28 12-17h8l25 20 36 38 6 19 3 11 8 13 13 4 28 33 18 32 3 20v20l-8 18-21-2-12-5-6-15-7-8-15-11-20-4-30-4h-22l-20-32-44-2-34-1h-32l-55 11-35 11-23 5-20 1-29 6-44 12-24 6-25 13-19 3-9-1c-3-1-5-5-8-7l-26-25-29-30-31-32-28-31-24-27-20-28-7-15-8-11-18 25-23 33-22 25-24 19-21 23-16 22-19 18-13 12-4 25-2 36-3 37-6 20-12 31-20 27-18 25-24 33-21 29-16 31-10 27 11 5-4 21-11 17-8 22-2 14-9 17-17 1-30-9-33-19-10-11-21-1-24-8-31-23-25-35-9-25 2-22 9-9h12l27 17 22-1 34-17 17-2 22 14 13-12 12 4 22-41 20-47 8-33 16-47 11-26 7-20 5-15s-1-14 1-20c1-4 7-11 7-11l-1-26s-1-14 1-20c4-10 18-28 18-28l17-32 26-62 27-61 62-92 213 13Z"/>
  </g>
</svg>
