<svg xmlns="http://www.w3.org/2000/svg" xml:space="preserve" fill-rule="evenodd" stroke-linejoin="round" stroke-miterlimit="2"  viewBox="0 0 750 1167">
  <g fill-rule="nonzero">
    <path d="m420 319-28-28c-9-8-16-18-22-29-5-11-14-21-21-30-4-6-9-10-12-16l-7-18-16-34-9-17c-3-5-5-11-9-16l-11-15-15-15-33-23c-21-14-44-26-66-39l-34-21c-11-7-24-9-37-10-11-1-23-1-34-3L31 1 13 0C11 0-5 0 1 4c10 6 22 4 33 7L22 23 9 34c-2 1-5 2-5 5s4 2 6 1l3-2 3-1 4-3c-1 2-6 7-6 9-1 4 6 1 8 0 2-3 6-4 9-6l8-5-11 12c-1 1-3 2-1 4 1 2 4 0 6-1 10-6 18-13 30-13l9 2h9l19-3c13-3 25 5 35 12 22 14 42 31 60 49 9 9 18 19 28 27l15 11c5 4 11 7 14 12 7 11 10 23 16 34 6 12 11 23 15 35l6 17 7 18c1 6 0 12-5 16-1 0-67 56-64 58 4 4 7 6 8 12 2 7-1 11-4 16l-11 13c11 9 39 73 42 77l13 14c7-3 146-134 145-135m-67 280 185-94c1-1 10 24 12 26 5 12 11 24 15 37l4 18 5 18c6 12 11 24 15 37l12 36 10 38c2 12 6 26 6 39s3 25 5 38l5 19 4 18c3 12 7 25 13 35 6 12 12 23 16 35 7 26 11 52 15 78 1 11-41 31-44 26-15-22-25-46-33-71l-10-38c-3-12-8-23-14-35l-10-14-8-19c-5-11-6-24-9-36-5-24-19-45-30-67a561 561 0 0 1-32-69c-9-9-22-9-32 0-10 8-13 21-19 31l-20 34-11 16-11 16c-8 10-14 21-20 32l-10 16-9 18-8 18-7 17c-3 5-6 12-10 16l-13 14c-7 11-15 21-20 33l-15 36c-5 11-14 22-22 32-8 9-15 22-24 29-5 4-39-20-36-27 7-25 18-48 30-70l19-35 9-15 8-18 8-17 7-16 6-18 5-18 12-39 11-36 9-28c3-9 5-18 9-26l12-26c2-4 5-8 5-12 0-3-1-3 1-6l4-6"/>
    <path d="M118 225c-2 9-2 20-2 31 0 6-1 12 4 17 2 2 4 4 4 7 1 2 2 7 4 9a84 84 0 0 0 20 18c3 1 11 13 14 14 19 12 34 36 58 22h1c-46-29-103-118-103-118Z"/>
    <path d="M291 271c3-4 0-5 0-9l-1-8c-1-3 0-7-2-9-2-3-2-5-5-7-3-3-5-2-6-6-1-7 0-11-6-16-5-3-11-7-14-13s-4-10-10-14l-15-7c-11-5-19-10-31-11-11-2-26-4-37 2-11 7-21 11-30 21s-14 20-16 31c11 56 57 89 103 118 5-3 10-8 12-13 3-7 58-59 58-59Zm427 891c9 0 32 0 32-13s-15-19-19-30c-3-6-2-13-7-17-4-4-42-8-49 3-5 8-5 15-6 24v11c1 3 1 8 3 11l10 5 11 4c8 2 17 2 25 2m-579 4c11 0 28 1 36-9 4-6 2-10 2-17s6-10 8-16c3-5 5-12 4-18-1-5-42-19-48-15-5 4-10 15-12 21-2 9-5 16-9 24-2 6-9 19-3 24 6 6 15 6 23 6h-1"/>
    <path d="M249 998c0 6-2 12-6 18l-4 7-7 6c-2 2-1 5 0 7 1 3 0 7-2 9-3 3-5 3-6 7-1 2 0 6-2 8l-7 5c-3 2-4 5-4 8v8c0 4-3 5-6 6-6 2-10 4-10 10s0 12-2 18c-2 8-64-15-62-20 3-5 8-9 10-15 1-6-1-13 4-17 5-5 2-10 3-16 1-3 2-5 5-6 3-2 4-3 5-7 0-3 0-6 2-8s4-2 7-3c6-3 2-11 7-15 3-2 12-7 12-11 0-6 2-13 5-17l3-8c3-3 4-3 7-1l16 10 32 17m429-34c0 7 1 12 5 17l5 7 1 3 1 5c0 2 2 4 4 5 3 1 3 5 4 8 0 6 0 12 2 18 1 6 5 9 8 15l7 16c3 5 4 11 4 17 0 7 1 10 5 15 4 4 3 9 3 15-12-5-24-8-37-4-6 2-24 25-24 16-1-5 2-13-1-18-3-4-10-6-12-12v-18l-8-14-13-36-8-17-4-8-2-7c0-7 53-26 58-24l2 1M190 250c-3-2-5 1-3 3s5-1 3-3m160 329c-26 0-51-6-76-12-12-3-23-9-35-14l-18-6c-4-1-15-1-15-6 0-12 8-24 13-35 6-11 13-23 16-35 2-5 3-13 8-16l7-7 6-6c3-6 17-48 14-52-16-22-44-22-50-27l-8 6-5 5c-3 2-6 4-7 7l-5 8-3 9-7 36c-3 12-2 25-7 36-5 13-8 25-11 37a138 138 0 0 0-2 56l2 8c1 2 7 3 9 4 24 10 51 14 77 20 25 6 51 9 76 13 4 1 18 3 19-3l1-15c0-3 3-9 1-11"/>
    <path d="M420 317c9 9 15 19 22 30l22 32c13 22 19 48 30 72 5 11 13 21 22 30l14 13c2 3 11 9 10 14-2 13-162 93-183 95 0-13-11-65-11-65l1-17c0-5-6-11-9-15l-14-14c-9-8-20-15-31-21l-13-10c-4-4-7-6-7-12a1073 1073 0 0 1 147-132"/>
    <path d="m348 539-9 12-3 6v9c0 12-3 25 0 37 2 7 9 7 13 3l3-4 5-5c1-1-9-58-9-58"/>
  </g>
</svg>
