<svg xmlns="http://www.w3.org/2000/svg" xml:space="preserve" fill-rule="evenodd" stroke-linejoin="round" stroke-miterlimit="2" clip-rule="evenodd" viewBox="0 0 4167 6667">
  <path fill-rule="nonzero" d="M268 3133c12-635 43-602-38-589-42 6-78-3-103-38-37-49-82-91-106-150-63-152 24-164 151-588 38-125 64-253 108-375 37-102 111-164 117-218 2-15 11-28 23-36 59-35 112-81 180-103 148-47 294-102 448-129 25-4 38-15 45-37 16-45 24-92 25-139 0-42-22-73-55-91-51-25 8-49-5-158-8-69 62-67 56-149-8-118 78-120 108-223 15-48 51-71 94-86 260-89 417 95 430 136 24 81 59 158 64 244 4 77-53 102-54 201-1 45-13 87-30 129-27 64-45 132-90 188-18 22-12 40 16 53 112 51 216 117 324 176 241 131 237 601 261 727 2 7-3 16 6 18 16 4 31-57 44-78 12-19 25-31 32-54 7-20 12-41 23-59 23-36 65-35 96-59 32-26 347-208 368-198 49 23 44-16 51-41 34-129-109-344-88-522 4-28-3-57-6-85 0-4 0-10-6-9-9 2-15 51-37 9-20-38-30-80-15-121 10-29 11-58 16-87 6-37 35-69 7-110-11-15 7-37 26-49 131-85 193-34 287-74 58-25 191-24 200 37 13 78 168 143 125 354-4 18 1 36 10 53 39 78-1 129 1 236 1 29-15 56-30 79-42 63-30 131-24 198 4 52 28 18 376 218 34 19 169 8 229 178 99 279 111 446 197 825 41 183 65 366 8 552-64 207-23 315-179 363-22 7-45 12-70-4-22-15-44 3-42 30 30 420-65 600-132 1232-24 227-87 267-112 514-37 363-357 509-317 945 9 94 17 188 46 279 10 30-3 47-37 54-64 13-276 61-410 49-44-4-59-33-27-66 99-100 84-226 74-346-16-211-204-425-219-738-16-333 24-412 6-533-73-485-289-755-292-1098-1-45-19-86-25-131-28-207 13-623 124-711 4-3 6-7 7-11 7-65 68-163 45-204-44-78-15-88-37-117-25-32-41-20-65 130-28 171-50 116-74 322-11 93-50 179-61 272-6 59 17 114 10 171-16 132 1 126 24 243 10 51 7 101-21 146-20 34 10 73-50 142-13 15-29 31-47 4-9-12-17-9-22 4-1 4 0 10-2 13-43 46-83 95-116 149-9 15-23 5-28-10-18-52 45-105-37-131-78-25-26-77-34-178-9-95 25-177 79-252 36-49-13-57 25-126 3-6 9-13 5-20-51-80 48-131-35-320-9-20-60-147-77-138-6 3-5 30-4 37 23 136-13 267-38 398-24 130-73 60-90 242-39 412 97 539-16 559-144 26-174-46-202 27-60 153-102 474-49 781 75 440-119 715-175 1049-32 194-2 151-7 291-3 54-1 106 26 157 27 50 9 84-39 87-116 9-358 43-375 2-10-25-6-50 11-73 47-65 45-69-8-129-39-44-38-103-54-156-45-158-12-287-69-360-54-69 8-108-58-225-62-109-115-224-174-335-67-129-102-272-40-419 16-36 19-74 16-114-11-166 21-53-32-375-7-46-42-41-105-79-68-40-77-70-70-149 19-205-9-408-9-408 36-153-72-229-27-450 13-66 0-250 43-298 7-8 5-18 7-28 32-244 90-381 99-599 9-208-34-282-87-430-7-20-15-23-28-5-15 23-52 75-34 95 62 66-10 182-10 321 1 23-3 50-21 64-52 38-53 1-81 1259-12 560-55 1234 20 2005 60 609 102 652 60 663-21 6-30-19-38-34-6-12-6-28-8-42-163-1278-96-2093-76-3213Zm893 3182h1l-2-1c39-125 82-208 69-389-1-12-3-30-20-29-19 2-11 20-12 32-6 51 30 75-56 314-13 35-12 55 20 73Zm2557-3617c7 63 8 121 22 176 24 87 53 174 73 262 2 11 2 20 18 11 81-46 88-59 77-153-27-245-28-111-141-471-2-8-4-19-14-19-13 0-12 14-16 22-8 18 12 34 3 50-22 40 2 88-22 122ZM1192 5743c-35-203-42-258-45-305-14-207-44-95-40-66 7 46-2 91-8 136-31 223 69 266 86 258 10-4 5-15 7-23Zm1949-1254h1c0 187 43 383 56 281 22-183 9-203-37-380-2-6-4-15-13-13-9 1-7-4-7 112ZM1976 2886c0-124 9-254-30-210-50 56-53 119-9 183 35 50 31 54 41 50s5-15-2-23Zm1195 2299c16 6 13-21 25-29 5-3 7-10 12-12 31-12 27-37 21-61-37-162-35-155-42-155-10 0-10 13-11 21-15 174-22 230-5 236ZM1935 2343h2c-11-141-8-139-20-140-9-1-13 10-15 18-18 79-42 139 6 211 4 5 6 14 15 12 10-1 12-11 12-19v-82Zm-807 2159c0 8-3 20 9 21 9 0 12-12 14-20 77-365-30-277-23-1Zm22 419c-14-43-59 67-9 160 13 25 28 2 28-3 22-123-2-103-19-157Z"/>
</svg>
