<svg xmlns="http://www.w3.org/2000/svg" xml:space="preserve" fill-rule="evenodd" stroke-linejoin="round" stroke-miterlimit="2"  viewBox="0 0 2500 1750">
  <path fill-rule="nonzero" d="M214 0A211 211 0 0 0 58 356a212 212 0 0 0 364-140A212 212 0 0 0 216 0h-2Zm170 433c-8 0-15 1-19 3l-8 7c-3 4-3 23 1 32l4 14c0 4 2 7 3 7l1 3c0 3 1 4 2 4l2 4 2 4 2 4 2 4c1 0 2 1 2 3l2 3c1 0 2 1 2 3l1 3 14 17c18 27 27 35 61 53 12 6 24 14 27 17 6 6 12 17 12 22l2 4 2 4 2 4c1 0 2 1 2 4 0 2 1 3 2 3l2 4c0 3 1 4 2 4l2 4c0 3 2 7 5 10l4 6a223 223 0 0 0 24 36l4 5 7 5a52 52 0 0 0 24 10c6 0 11-3 16-8 4-5 9-7 12-7 5 0 16-3 23-7a17 17 0 0 1 12-2h4c3 0 5-1 11-6 5-6 8-10 8-13 0-5 2-7 8-7l9 1a62 62 0 0 0 18 0l5-1 25 4a879 879 0 0 1 172 65l8 7c4 3 22 12 36 16 33 11 63 15 140 19a216 216 0 0 1 57 8l11 4 12 3h6l3 1 5 1 4 2c0 2 25 14 44 23l13 7 5 3c3 0 7 2 8 4l5 2 7 4c2 3 6 4 8 4l4 2 8 5c24 13 33 18 33 21s-5 5-25 14l-13 7-10 7c-5 3-14 9-20 15l-12 9c-2 0-2 2-2 3 0 2-1 3-2 3l-2 4-2 4-2 4c0 2-1 3-2 3h-1l-1 3-2 6-2 4-2 6-2 4c0 2-1 5-3 6l-4 12c-1 10-7 25-12 28l-2 5c0 2-1 3-2 3s-2 1-2 3l-2 3c-1 0-2 1-2 4l-2 4-2 2c0 2-1 3-2 3l-2 3c0 2-1 3-2 3l-2 4-4 8-4 7-4 6c-2 3-3 4-8 4h-10l-40-4c-16-2-33-5-43-8a397 397 0 0 0-31-6 271 271 0 0 0-67 10c-8 1-15 7-22 18-12 19-1 49 23 61l20 12c18 13 26 17 46 21 17 3 47 6 62 6l75-1c66-1 69-1 77-5l12-7 4-3c1 0 2-1 2-3l3-8 3-8c0-2 6-4 23-8 39-8 50-13 69-32 8-8 16-17 18-21 2-5 4-7 7-7s7 1 12 4l9 4v16c0 10 1 16 2 16s2 2 2 5 1 5 2 5l2 4 2 4 2 2c0 4 17 17 25 19a265 265 0 0 0 62 4l7-1 8 2a129 129 0 0 0 64 6l7 3c2 2 8 5 14 6 12 2 20 5 27 8 3 2 11 4 17 4 8 1 13 3 17 6 4 4 8 5 14 5s12 2 18 5c7 4 12 5 24 5 9 0 16 1 19 3l22 4c10 0 21 2 25 4a21 21 0 0 0 15 1 33 33 0 0 1 16 0l8 1c4 0 8 0 15-2a566 566 0 0 0 215-47 7357 7357 0 0 1 98-33 579 579 0 0 1 162-45c6 0 6 1 11 11 4 9 5 13 5 28 0 17 1 18 6 25 4 6 6 11 10 33l7 40c11 55 11 59 10 84a442 442 0 0 0 3 117l4 13 4 21 6 28 4 24 1 14h-9c-6 0-14-1-20-3l-15-3-13-5-10-2c-4 0-8 2-10 6-3 5-3 5 0 11 6 9 12 13 24 18 19 7 24 9 27 17 5 10 23 27 35 33l10 4-3 7c-4 8-4 19 0 24 3 3 5 4 7 4l13-4a76 76 0 0 1 9-5l-8 10c-12 15-10 29 4 34l6 5c0 4 6 9 11 9l11-4-3 12v5l1 8c1 3 2 4 4 4h2l2-1 3-1 6-2 6-3 3-3 1-1 2-2 5-8 1-5 1-1 2-5v-3l1-1 1-7v-34c-4-16-14-47-17-50a574 574 0 0 1 1-142 499 499 0 0 0 1-63l1-8 1-6-2-10-7-54-2-14-1-7v-1l-3-20v-2l-2-14-1-1a3025 3025 0 0 0-11-76c-1-12-1-13 4-14 9-2 10-4 10-43 0-28 0-38 2-42a318 318 0 0 0-7-152c-1-7-1-9-9-13l-2-4-2-5-15-24-3-6-3-3-7-7-18-19a127 127 0 0 0-19-20 384 384 0 0 1-20-12l-2-16c0-16 12-61 21-77 5-12 7-13 17-17 6-3 13-7 17-11l8-6 2-1 6-10c8-9 11-16 11-28 1-9-4-17-11-18-4-1-4-2-3-8 4-25 2-55-5-71-9-20-18-28-51-46-24-13-45-19-64-19-9 0-17 1-26 4-14 5-29 16-40 32a191 191 0 0 0-31 74l-1 71-1 65-14-14-5-8-3-2-15-12c-5-6-17-8-39-8-14 0-31-1-38-3l-35-2c-17 0-36 1-50 3a872 872 0 0 1-72 6l-19-6-31-8c-31-7-37-10-71-26a446 446 0 0 0-139-37c-9 0-37-7-64-16a604 604 0 0 0-43-13c-8-4-23-10-29-11-8-2-31-12-35-16l-7-7-4-3-11-7c-14-9-26-13-47-13l-11 1c-39 1-56 5-56 12 0 2-2 3-4 3-3 0-4 1-4 6 0 10 11 18 28 21s20 4 14 4c-2 0-5 2-6 4l-1 3h1l1 2c0 6 16 10 39 13h1v2l1 6 7 12 8 6 1 1v1h2c-1 1 0 2 4 3l2 1h2l2 1h2l6 3a280 280 0 0 1 13 3l9 1 5 1 14 1 6 1 15-1 12 1 29 12a1450 1450 0 0 0 119 60l44 15 8 3 21 7c10 3 21 6 27 6 7 0 15 2 29 8 17 7 49 18 88 30 11 4 18 7 21 11 3 3 8 5 10 5s6 1 8 3l30 7h3l-25 8-17 4-13 3a241 241 0 0 1-34 7 363 363 0 0 0-42 3h-8l-18-1a157 157 0 0 0-15 3l-19-2-8 1-13-5-13-7-5-2-8-4-17-7c-6-2-13-5-14-7a22 22 0 0 0-15-7c-3 0-23-9-44-20a1716 1716 0 0 0-101-47 858 858 0 0 0-155-49c-5 0-14 0-25-2l-42-5c-21-3-49-10-65-17l-31-11-25-7c-14-5-27-7-51-8-47-1-55-3-88-16-8-4-44-14-56-16l-21-4-26-3a1258 1258 0 0 1-99-12 1459 1459 0 0 1-168-26c-30-5-51-11-64-17-7-3-8-4-4-4 3 0 9-2 13-5 7-5 9-7 9-11l-1-5h-1l-1 1-2-2-3-1-8 3c-4 1-8 4-8 5l-1 1-20-4c-10-2-10-3-15-13-10-22-12-25-17-27l-7-2c-4 0-8 4-8 9 0 3 2 7 4 8l15 20-14-7-16-7c-2 0-7-2-11-5l-11-5-16-6-16-6c-2 0-6-2-9-5-4-4-8-6-10-6-3 0-19-9-29-17l-12-8-8-5-6-4-11-6-7-3-12-6c-8-5-11-6-22-6Z"/>
</svg>
