<svg xmlns="http://www.w3.org/2000/svg" xml:space="preserve" fill-rule="evenodd" stroke-linejoin="round" stroke-miterlimit="2" clip-rule="evenodd" viewBox="0 0 2667 2667">
  <path fill-rule="nonzero" d="m1034 1367 4 4c4 4 4 5 4 20-1 26-1 33 3 40s3 11-3 21l-4 11c0 6 6 15 13 19 6 3 6 5 6 11 0 3-1 7-3 10-5 5-12 22-12 28l4 11 4 8-6 8-6 9c0 3-2 7-8 17-6 9-6 22 0 29l5 6-5 12-9 18c-10 13-11 15-13 36s-2 20-15 44c-5 9-5 16 1 24 5 7 5 9-2 22-4 9-5 13-5 22 0 11-2 13-11 13l-9 3c-4 4-4 5-4 14s0 10-4 15c-6 5-6 9-2 17 1 2 2 5 1 6h-3l-46-2a2278 2278 0 0 0-195 0 1691 1691 0 0 1-60 0c-6-1-6-4 0-5l12-5a239 239 0 0 1 32-12l13-4 11-5a705 705 0 0 1 60-22l9-4 12-4 14-6c30-12 85-45 110-65l14-12c36-29 42-35 47-45l6-11 12-26a930 930 0 0 1 5-48l5-40 5-41c3-30 7-65 10-112l3-29Zm639 0 2 27 4 47c2 25 4 48 7 67l4 41 5 40a930 930 0 0 1 5 48 200 200 0 0 0 18 37c6 10 11 16 47 45l14 12a545 545 0 0 0 177 91 707 707 0 0 1 71 26 240 240 0 0 1 25 10c6 1 6 4 0 5l-14 1-46-1a3809 3809 0 0 0-244 2c0-1 0-4 2-6 4-8 3-12-2-17-4-5-5-6-5-15 1-9 0-10-4-14l-8-3c-10 0-11-2-11-13 0-9-1-13-6-22-6-13-7-15-2-22 6-8 6-15 1-24-13-24-13-23-15-44s-2-23-12-36l-10-18-5-12 5-6c6-7 6-20 1-29-6-10-9-14-9-17 0 0-2-5-6-9l-6-8 4-8c3-3 5-9 5-11 0-6-8-23-13-28-2-3-3-7-3-10 0-6 1-8 6-11 8-4 13-13 13-19l-3-11c-7-10-7-14-4-21 4-7 5-14 4-40-1-15 0-16 3-20l5-4Zm-351 816a157 157 0 0 1 60 12l18 8c10 4 11 5 11 9s-1 6-4 6l-7 4c-1 2-18 9-37 16-34 14-43 18-45 21l-17-6-36-16-16-7-13-7 6-4c16-10 49-31 53-32 6-3 16-4 27-4ZM1266 0l-8 1-5 2-11 4-11 5-2 2-6 1-7 2-8 5a243 243 0 0 0-62 60 212 212 0 0 0-42 76l-2 15a663 663 0 0 0-23 74 927 927 0 0 1-15 62c-2 3-4 13-6 23a1542 1542 0 0 1-17 100c-1 11-2 54-1 96 1 17 1 17-16 51a380 380 0 0 0-19 42 730 730 0 0 0-21 48 356 356 0 0 0-33 106c0 5-10 26-15 31l-11 13c-7 9-21 21-24 21-2 0-15 9-24 16-15 12-29 26-33 36l-3 9h1v2l-1 11-1 15-1 5c1 3 0 7-1 13l-6 61-3 28a329 329 0 0 0 9 83l5 21a314 314 0 0 1 10 51 464 464 0 0 1-6 118l-1 21c-3 11-6 48-8 102a328 328 0 0 1-14 111l-2 7c-1 4-7 11-9 11l-3 1-15 11c-26 17-35 25-67 56a475 475 0 0 1-99 82 211 211 0 0 1-35 24l-8 5-8 5-12 7-30 18a175 175 0 0 1-80 25c-19-3-24-4-27-7-24-17-37-22-73-25a121 121 0 0 1-44-9l-24-7-13-5-12-5a33 33 0 0 0-13-2c-6 0-9 1-14 5-8 6-11 13-9 17 3 5 3 7-2 11-3 2-10 12-16 21l-15 21c-2 1-4 6-5 13-1 6-2 13-4 16l-5 13-17 41-8 2-10 2-3 1-3-3-9-9-6-8c0-5-6-19-12-29-7-9-14-13-24-13h-3c-8 1-9 1-12 8-4 8-5 38-1 48 2 5 11 20 22 35 4 4 7 10 9 13 2 6 7 12 13 15l17 2 28-2 12-1 8 1c17 5 17 5 22 18 4 9 11 12 37 12l34-2 10-2 7 8c8 8 8 8 20 8 10 0 13-1 34-12l40-19 17-11 6-2 2 1-5 9-4 11-6 22c-9 26-10 47-4 82l7 34c5 13 15 32 22 40a239 239 0 0 0 57 41l16 10c24 18 74 48 80 48l46 22 7 8c0 3 4 6 16 12l30 16a90 90 0 0 0 21 12 522 522 0 0 0 79 38c5 0 4 4-2 10l-16 19c-4 8-12 13-24 15-5 1-9 3-10 5l-3 2c-3 0-24 24-24 28l-2 3-3 5-3 10c-7 16-8 22-8 39v18l-7 10c-6 8-7 11-8 20s0 11 3 13c2 1 4 3 4 5 0 3 3 7 8 7 3 0 4 1 5 5 0 3 2 9 5 13s3 6 7 6l6-1h6c4 0 6 1 9 5 4 4 7 5 13 5 4 0 7 1 7 2l5 1h6c13-1 17-3 17-6s5-5 13-7c4 0 7-2 8-3l12-8 13-7 8-4a217 217 0 0 0 24-8l10-4 9-3 7-2 18-5c9-1 16-3 16-4l6-2 6-2 11-1c10 0 48-7 70-13l35-5c31-2 63-6 84-10l36-2a1010 1010 0 0 1 163 14 860 860 0 0 1 71 9 690 690 0 0 1 61 8c11 0 56 9 76 15a2895 2895 0 0 0 143 38 692 692 0 0 0 85 15 1121 1121 0 0 0 145 15 496 496 0 0 0 61 1h48l12 6c7 3 12 7 14 10 2 5 23 17 32 19l10 3c6 4 12 6 19 6l11-1 23-5c8-3 10-4 14-11 3-7 4-9 3-15-1-8-12-26-20-34-2-3-4-7-4-15l-3-15-2-5c0-3-8-22-11-27l-4-7a126 126 0 0 0-37-38c-5-3-10-8-12-11-8-16-24-34-38-43-18-12-20-12-36-15l-15-1c-19 0-49 3-68 6l-24 1c-20 0-43-2-49-4-5-1-7-2-7-5 0-2-1-4-3-4l-2-5-5-9c-5-5-6-6-4-10l6-6 3-5 3-4c3-2 5-7 9-22l2-8h10a1035 1035 0 0 1 82-20 971 971 0 0 0 136-49l23-13 19-10c0-1 10-7 21-12a216 216 0 0 0 45-28l2-1c16-14 37-27 61-42l19-14a110 110 0 0 1 34-26l10-6 8-5c6-3 22-20 22-24l1-2c2 0 6-11 13-27l7-34 3-23c4-26 3-45-5-66a212 212 0 0 0-47-78c-8-8-10-12-8-12h1l7 2c2 2 6 3 8 3l14 6c10 4 14 5 30 6l29 5 15 2 13-3c4-2 7-3 11-3l13 2 6 1c8 0 14-4 25-15 10-10 13-13 17-13l20-6a473 473 0 0 0 48-13l24-6c25-5 27-8 31-34l4-18c8-31 9-62 2-75-7-14-20-24-29-24l-4 1c-8 4-12 20-14 50-1 17-4 29-9 40-1 4-3 6-4 6-4 0-8-10-22-39l-6-17-2-5-7-17a125 125 0 0 0-22-45c0-4-12-24-18-32-6-6-9-8-15-9h-2c-9 0-19 4-25 11l-12 8c-4 2-10 6-15 11-5 4-13 10-19 12l-12 7c-3 4-11 7-27 11-18 4-40 14-61 30-13 9-30 18-41 21l-10 2-15-1a246 246 0 0 1-67-18l-30-13a625 625 0 0 1-153-94 113 113 0 0 0-19-13c0-1-7-7-15-12-20-15-36-30-40-38l-13-16c-10-10-11-12-13-22a956 956 0 0 1-14-137l-2-22-1-16-3-29-2-47a301 301 0 0 1 10-94l5-27 4-23c4-28 5-67 3-95-8-113-17-139-54-167l-59-34c-15-8-18-10-18-13 0-2-1-3-3-3s-14-10-20-18l-6-6c-3-2-4-4-4-5l-4-4c-3-2-9-13-12-23l-6-18-8-40-4-17a347 347 0 0 1-10-64l-4-16-3-19-4-31c-1-20-3-32-6-39-1-2 0-3 1-3l-1-15-3-18a320 320 0 0 1-12-77l-2-21-1-10a99 99 0 0 1-2-10l-1-13-5-16-5-25-6-27a172 172 0 0 0-14-54c-7-23-10-31-14-37l-4-8-3-7-4-7-3-8-4-6-5-7-5-7-12-15-14-15a121 121 0 0 0-27-24 772 772 0 0 0-38-25l-4-2-8-4a1230 1230 0 0 1-21-6l-15-2a368 368 0 0 1-40-4l-26-2c-5-1-9-2-11-4a182 182 0 0 1-26-2 175 175 0 0 1-16-4h1l-11-1Z"/>
</svg>
